<svg xmlns="http://www.w3.org/2000/svg" viewBox="0 0 512 512" fill="#16a34a">
  <rect width="512" height="512" rx="64" fill="#16a34a"/>
  <g transform="translate(96, 96) scale(0.625)">
    <path fill="#ffffff" d="M256 80c-35.3 0-64 28.7-64 64v48c0 35.3 28.7 64 64 64s64-28.7 64-64v-48c0-35.3-28.7-64-64-64zm-8 64a8 8 0 1 1 -16 0 8 8 0 1 1 16 0zm32 0a8 8 0 1 1 -16 0 8 8 0 1 1 16 0zM176 288c-8.8 0-16 7.2-16 16v16c0 8.8 7.2 16 16 16h160c8.8 0 16-7.2 16-16v-16c0-8.8-7.2-16-16-16H176zm0 80c-8.8 0-16 7.2-16 16v16c0 8.8 7.2 16 16 16h160c8.8 0 16-7.2 16-16v-16c0-8.8-7.2-16-16-16H176z"/>
  </g>
  <text x="256" y="460" font-family="Arial" font-size="72" font-weight="bold" text-anchor="middle" fill="#ffffff">IVANIS</text>
</svg>
